G04 #@! TF.GenerationSoftware,KiCad,Pcbnew,7.0.2*
G04 #@! TF.CreationDate,2024-01-15T15:27:12-05:00*
G04 #@! TF.ProjectId,4 VCF FINAL,34205643-4620-4464-994e-414c2e6b6963,rev?*
G04 #@! TF.SameCoordinates,Original*
G04 #@! TF.FileFunction,Legend,Bot*
G04 #@! TF.FilePolarity,Positive*
%FSLAX46Y46*%
G04 Gerber Fmt 4.6, Leading zero omitted, Abs format (unit mm)*
G04 Created by KiCad (PCBNEW 7.0.2) date 2024-01-15 15:27:13*
%MOMM*%
%LPD*%
G01*
G04 APERTURE LIST*
%ADD10C,1.440000*%
%ADD11C,1.600000*%
%ADD12O,1.600000X1.600000*%
%ADD13R,1.700000X1.700000*%
%ADD14O,1.700000X1.700000*%
%ADD15R,2.640000X1.600000*%
%ADD16O,2.640000X1.600000*%
%ADD17R,1.727200X1.727200*%
%ADD18O,1.727200X1.727200*%
%ADD19R,1.600000X1.600000*%
%ADD20R,1.500000X1.500000*%
%ADD21C,1.500000*%
%ADD22R,2.400000X1.600000*%
%ADD23O,2.400000X1.600000*%
%ADD24C,4.000000*%
G04 APERTURE END LIST*
%LPC*%
D10*
X149100000Y-141100000D03*
X146560000Y-141100000D03*
X144020000Y-141100000D03*
D11*
X91975000Y-120475000D03*
D12*
X91975000Y-128975000D03*
D11*
X164725000Y-88895000D03*
D12*
X156225000Y-88895000D03*
D11*
X99225000Y-109475000D03*
X94225000Y-109475000D03*
X131415000Y-86995000D03*
D12*
X139915000Y-86995000D03*
D11*
X164725000Y-85395000D03*
D12*
X156225000Y-85395000D03*
D13*
X156475000Y-107475000D03*
D14*
X156475000Y-104935000D03*
X156475000Y-102395000D03*
D13*
X103475000Y-131975000D03*
D14*
X100935000Y-131975000D03*
X98395000Y-131975000D03*
D13*
X143975000Y-131975000D03*
D14*
X146515000Y-131975000D03*
D11*
X95475000Y-90395000D03*
X90475000Y-90395000D03*
X116475000Y-93475000D03*
X116475000Y-88475000D03*
D13*
X161975000Y-131975000D03*
D14*
X164515000Y-131975000D03*
X167055000Y-131975000D03*
D13*
X130975000Y-131975000D03*
D14*
X128435000Y-131975000D03*
X125895000Y-131975000D03*
D11*
X115625000Y-114620000D03*
D12*
X124125000Y-114620000D03*
D11*
X124125000Y-111620000D03*
D12*
X115625000Y-111620000D03*
D11*
X100225000Y-120725000D03*
X105225000Y-120725000D03*
X123975000Y-104620000D03*
X118975000Y-104620000D03*
X98725000Y-87395000D03*
D12*
X90225000Y-87395000D03*
D13*
X121475000Y-131975000D03*
D14*
X118935000Y-131975000D03*
D11*
X129850000Y-147100000D03*
D12*
X138350000Y-147100000D03*
D13*
X161205000Y-107475000D03*
D14*
X161205000Y-104935000D03*
X161205000Y-102395000D03*
D15*
X143665000Y-82585000D03*
D16*
X143665000Y-85125000D03*
X143665000Y-87665000D03*
X143665000Y-90205000D03*
X151285000Y-90205000D03*
X151285000Y-87665000D03*
X151285000Y-85125000D03*
X151285000Y-82585000D03*
D13*
X91975000Y-131975000D03*
D14*
X94515000Y-131975000D03*
D11*
X91975000Y-78395000D03*
D12*
X100475000Y-78395000D03*
D11*
X90225000Y-84395000D03*
D12*
X98725000Y-84395000D03*
D11*
X131975000Y-99225000D03*
D12*
X131975000Y-107725000D03*
D13*
X139975000Y-131975000D03*
D14*
X137435000Y-131975000D03*
X134895000Y-131975000D03*
D11*
X90225000Y-81395000D03*
D12*
X98725000Y-81395000D03*
D17*
X168975000Y-110055000D03*
D18*
X166435000Y-110055000D03*
X168975000Y-107515000D03*
X166435000Y-107515000D03*
X168975000Y-104975000D03*
X166435000Y-104975000D03*
X168975000Y-102435000D03*
X166435000Y-102435000D03*
X168975000Y-99895000D03*
X166435000Y-99895000D03*
D19*
X103475000Y-75395000D03*
D12*
X103475000Y-77935000D03*
X103475000Y-80475000D03*
X103475000Y-83015000D03*
X103475000Y-85555000D03*
X103475000Y-88095000D03*
X103475000Y-90635000D03*
X103475000Y-93175000D03*
X111095000Y-93175000D03*
X111095000Y-90635000D03*
X111095000Y-88095000D03*
X111095000Y-85555000D03*
X111095000Y-83015000D03*
X111095000Y-80475000D03*
X111095000Y-77935000D03*
X111095000Y-75395000D03*
D11*
X139915000Y-82995000D03*
D12*
X131415000Y-82995000D03*
D11*
X124725000Y-78395000D03*
D12*
X116225000Y-78395000D03*
D11*
X119475000Y-127725000D03*
D12*
X119475000Y-119225000D03*
D10*
X119640000Y-143100000D03*
X117100000Y-143100000D03*
X114560000Y-143100000D03*
D11*
X110475000Y-96475000D03*
X105475000Y-96475000D03*
D13*
X170975000Y-131975000D03*
D14*
X173515000Y-131975000D03*
D11*
X148725000Y-93975000D03*
X143725000Y-93975000D03*
X124725000Y-75395000D03*
D12*
X116225000Y-75395000D03*
D13*
X113975000Y-131975000D03*
D14*
X111435000Y-131975000D03*
D20*
X134350000Y-118390000D03*
D21*
X134350000Y-115850000D03*
X134350000Y-113310000D03*
D22*
X102975000Y-101895000D03*
D23*
X102975000Y-104435000D03*
X102975000Y-106975000D03*
X102975000Y-109515000D03*
X102975000Y-112055000D03*
X102975000Y-114595000D03*
X102975000Y-117135000D03*
X110595000Y-117135000D03*
X110595000Y-114595000D03*
X110595000Y-112055000D03*
X110595000Y-109515000D03*
X110595000Y-106975000D03*
X110595000Y-104435000D03*
X110595000Y-101895000D03*
D24*
X86875000Y-74875000D03*
D19*
X158705000Y-112475000D03*
D11*
X161205000Y-112475000D03*
D20*
X138490000Y-113310000D03*
D21*
X138490000Y-115850000D03*
X138490000Y-118390000D03*
D11*
X96875000Y-117620000D03*
X91875000Y-117620000D03*
X115625000Y-100620000D03*
D12*
X124125000Y-100620000D03*
D13*
X152475000Y-131975000D03*
D14*
X155015000Y-131975000D03*
X157555000Y-131975000D03*
D11*
X91975000Y-75395000D03*
D12*
X100475000Y-75395000D03*
D11*
X130475000Y-121225000D03*
D12*
X138975000Y-121225000D03*
D11*
X151225000Y-79225000D03*
X146225000Y-79225000D03*
D19*
X161115225Y-96475000D03*
D11*
X158615225Y-96475000D03*
X116475000Y-85475000D03*
X121475000Y-85475000D03*
X156225000Y-82395000D03*
D12*
X164725000Y-82395000D03*
D11*
X89625000Y-100620000D03*
D12*
X98125000Y-100620000D03*
D11*
X130475000Y-127225000D03*
D12*
X138975000Y-127225000D03*
D24*
X171875000Y-74875000D03*
D11*
X124725000Y-81395000D03*
D12*
X116225000Y-81395000D03*
D11*
X130475000Y-124225000D03*
D12*
X138975000Y-124225000D03*
D24*
X129375000Y-94875000D03*
%LPD*%
M02*
