M48
; DRILL file {KiCad 7.0.2} date Mon Jan 15 15:27:14 2024
; FORMAT={-:-/ absolute / metric / decimal}
; #@! TF.CreationDate,2024-01-15T15:27:14-05:00
; #@! TF.GenerationSoftware,Kicad,Pcbnew,7.0.2
; #@! TF.FileFunction,Plated,1,2,PTH
FMAT,2
METRIC
; #@! TA.AperFunction,Plated,PTH,ComponentDrill
T1C0.800
; #@! TA.AperFunction,Plated,PTH,ComponentDrill
T2C1.000
; #@! TA.AperFunction,Plated,PTH,ComponentDrill
T3C1.016
; #@! TA.AperFunction,Plated,PTH,ComponentDrill
T4C3.200
%
G90
G05
T1
X89.625Y-100.62
X90.225Y-81.395
X90.225Y-84.395
X90.225Y-87.395
X90.475Y-90.395
X91.875Y-117.62
X91.975Y-75.395
X91.975Y-78.395
X91.975Y-120.475
X91.975Y-128.975
X94.225Y-109.475
X95.475Y-90.395
X96.875Y-117.62
X98.125Y-100.62
X98.725Y-81.395
X98.725Y-84.395
X98.725Y-87.395
X99.225Y-109.475
X100.225Y-120.725
X100.475Y-75.395
X100.475Y-78.395
X102.975Y-101.895
X102.975Y-104.435
X102.975Y-106.975
X102.975Y-109.515
X102.975Y-112.055
X102.975Y-114.595
X102.975Y-117.135
X103.475Y-75.395
X103.475Y-77.935
X103.475Y-80.475
X103.475Y-83.015
X103.475Y-85.555
X103.475Y-88.095
X103.475Y-90.635
X103.475Y-93.175
X105.225Y-120.725
X105.475Y-96.475
X110.475Y-96.475
X110.595Y-101.895
X110.595Y-104.435
X110.595Y-106.975
X110.595Y-109.515
X110.595Y-112.055
X110.595Y-114.595
X110.595Y-117.135
X111.095Y-75.395
X111.095Y-77.935
X111.095Y-80.475
X111.095Y-83.015
X111.095Y-85.555
X111.095Y-88.095
X111.095Y-90.635
X111.095Y-93.175
X114.56Y-143.1
X115.625Y-100.62
X115.625Y-111.62
X115.625Y-114.62
X116.225Y-75.395
X116.225Y-78.395
X116.225Y-81.395
X116.475Y-85.475
X116.475Y-88.475
X116.475Y-93.475
X117.1Y-143.1
X118.975Y-104.62
X119.475Y-119.225
X119.475Y-127.725
X119.64Y-143.1
X121.475Y-85.475
X123.975Y-104.62
X124.125Y-100.62
X124.125Y-111.62
X124.125Y-114.62
X124.725Y-75.395
X124.725Y-78.395
X124.725Y-81.395
X129.85Y-147.1
X130.475Y-121.225
X130.475Y-124.225
X130.475Y-127.225
X131.415Y-82.995
X131.415Y-86.995
X131.975Y-99.225
X131.975Y-107.725
X134.35Y-113.31
X134.35Y-115.85
X134.35Y-118.39
X138.35Y-147.1
X138.49Y-113.31
X138.49Y-115.85
X138.49Y-118.39
X138.975Y-121.225
X138.975Y-124.225
X138.975Y-127.225
X139.915Y-82.995
X139.915Y-86.995
X143.665Y-82.585
X143.665Y-85.125
X143.665Y-87.665
X143.665Y-90.205
X143.725Y-93.975
X144.02Y-141.1
X146.225Y-79.225
X146.56Y-141.1
X148.725Y-93.975
X149.1Y-141.1
X151.225Y-79.225
X151.285Y-82.585
X151.285Y-85.125
X151.285Y-87.665
X151.285Y-90.205
X156.225Y-82.395
X156.225Y-85.395
X156.225Y-88.895
X158.615Y-96.475
X158.705Y-112.475
X161.115Y-96.475
X161.205Y-112.475
X164.725Y-82.395
X164.725Y-85.395
X164.725Y-88.895
T2
X91.975Y-131.975
X94.515Y-131.975
X98.395Y-131.975
X100.935Y-131.975
X103.475Y-131.975
X111.435Y-131.975
X113.975Y-131.975
X118.935Y-131.975
X121.475Y-131.975
X125.895Y-131.975
X128.435Y-131.975
X130.975Y-131.975
X134.895Y-131.975
X137.435Y-131.975
X139.975Y-131.975
X143.975Y-131.975
X146.515Y-131.975
X152.475Y-131.975
X155.015Y-131.975
X156.475Y-102.395
X156.475Y-104.935
X156.475Y-107.475
X157.555Y-131.975
X161.205Y-102.395
X161.205Y-104.935
X161.205Y-107.475
X161.975Y-131.975
X164.515Y-131.975
X167.055Y-131.975
X170.975Y-131.975
X173.515Y-131.975
T3
X166.435Y-99.895
X166.435Y-102.435
X166.435Y-104.975
X166.435Y-107.515
X166.435Y-110.055
X168.975Y-99.895
X168.975Y-102.435
X168.975Y-104.975
X168.975Y-107.515
X168.975Y-110.055
T4
X86.875Y-74.875
X129.375Y-94.875
X171.875Y-74.875
T0
M30
